/* XPM */
static char * battery_xpm[] = {
"8 15 2 1",
" 	g None",
".	g #000000",
"        ",
"  ...   ",
"....... ",
"....... ",
"....... ",
"....... ",
"....... ",
"....... ",
"....... ",
"....... ",
"....... ",
"....... ",
"....... ",
"  ...   ",
"        "};
