/* XPM */
static char *mbmenu[] = {
/* columns rows colors chars-per-pixel */
"48 48 18 1",
"  c black",
". c gray6",
"X c gray12",
"o c #2F2F2F",
"O c #3F3F3F",
"+ c gray31",
"@ c #5F5F5F",
"# c #6F6F6F",
"$ c gray50",
"% c gray56",
"& c #9F9F9F",
"* c #AFAFAF",
"= c gray75",
"- c gray81",
"; c #DFDFDF",
": c #EFEFEF",
"> c gray100",
", c None",
/* pixels */
",,,,,,,,,,,,,,,,,,,,>>>>>>>>>,,,,,,,,,,,,,,,,,,,",
",,,,,,,,,,,,,,,,>>>>>>>>>>>>>>>>>,,,,,,,,,,,,,,,",
",,,,,,,,,,,,,,>>>>>>>>>>>>>>>>>>>>>,,,,,,,,,,,,,",
",,,,,,,,,,,,>>>>>>>>>>>>>>>>>>>>>>>>>,,,,,,,,,,,",
",,,,,,,,,,,>>>>>>>:*#Oo   oO$*>>>>>>>>,,,,,,,,,,",
",,,,,,,,,,>>>>>>-=-.          .@->>>>>>,,,,,,,,,",
",,,,,,,,,>>>>>;+ $>=             +;>>>>>,,,,,,,,",
",,,,,,,,>>>>>%.  $>>&             .%>>>>>,,,,,,,",
",,,,,,,>>>>>@    $>>>&              @>>>>>,,,,,,",
",,,,,,>>>>>@     $>>>>&              @>>>>>,,,,,",
",,,,,>>>>>@      $>>>>>&              @>>>>>,,,,",
",,,,,>>>>%       $>>>>>>&              %>>>>,,,,",
",,,,>>>>-        $>>>>>>>&              ;>>>>,,,",
",,,,>>>>*$$$$$$$$=>>>>>>>>&             O>>>>,,,",
",,,>>>>>>>>>>>>>>>>>>>>>>>>&             =>>>>,,",
",,,>>>>>>>>>>>>>>>>>>>>>>>>>&            +>>>>,,",
",,,>>>>>>>>>>>>>>>>>>>>>>>>>>&            :>>>,,",
",,,>>>>>>>>>>>>>>>>>>>>>>>>>>>&           &>>>,,",
",,>>>>>>>>>>>>>>>>>>>>>>>>>>>>>&          @>>>>,",
",,>>>>>>>>>>>>>>>>>>>>>>>>>>>>>>#         o>>>>,",
",,>>>>>>>>>>>>>>>>>>>>>>>>>>>>>:o          >>>>,",
",,>>>>>>>>>>>>>>>>>>>>>>>>>>>>:o           >>>>,",
",,>>>>>>>>>>>>>>>>>>>>>>>>>>>:o            >>>>,",
",,>>>>>>>>>>>>>>>>>>>>>>>>>>:o             >>>>,",
",,>>>>>>>>>>>>>>>>>>>>>>>>>:o              >>>>,",
",,>>>>>>>>>>>>>>>>>>>>>>>>:o              X>>>>,",
",,>>>>O          $>>>>>>>:o               +>>>>,",
",,>>>>%          $>>>>>>:o                %>>>>,",
",,,>>>-          $>>>>>:o                 ;>>>,,",
",,,>>>>o         $>>>>:o                 o>>>>,,",
",,,>>>>&         $>>>:o                  &>>>>,,",
",,,,>>>>X        $>>:o                  X>>>>,,,",
",,,,>>>>*        $>:o                   =>>>>,,,",
",,,,,>>>>@       $:o                   @>>>>,,,,",
",,,,,>>>>:o      Oo                   o:>>>>,,,,",
",,,,,,>>>>:o                         o:>>>>,,,,,",
",,,,,,,>>>>:o                       o:>>>>,,,,,,",
",,,,,,,>>>>>:+                     +:>>>>>,,,,,,",
",,,,,,,,>>>>>>*X                 X*>>>>>>,,,,,,,",
",,,,,,,,,>>>>>>:%X             X%:>>>>>>,,,,,,,,",
",,,,,,,,,,,>>>>>>>=#o       O#->>>>>>>,,,,,,,,,,",
",,,,,,,,,,,,>>>>>>>>>>;===:>>>>>>>>>>,,,,,,,,,,,",
",,,,,,,,,,,,,,>>>>>>>>>>>>>>>>>>>>>,,,,,,,,,,,,,",
",,,,,,,,,,,,,,,,>>>>>>>>>>>>>>>>>,,,,,,,,,,,,,,,",
",,,,,,,,,,,,,,,,,,,>>>>>>>>>>>,,,,,,,,,,,,,,,,,,",
",,,,,,,,,,,,,,,,,,,,,,,,,,,,,,,,,,,,,,,,,,,,,,,,",
",,,,,,,,,,,,,,,,,,,,,,,,,,,,,,,,,,,,,,,,,,,,,,,,",
",,,,,,,,,,,,,,,,,,,,,,,,,,,,,,,,,,,,,,,,,,,,,,,,"
};
