/* XPM */
static char * minitimestrip_xpm[] = {
"122 11 4 1",
" 	c None",
".	c #E5EAC9",
"+	c #686868",
"@	c #D6D4AD",
"..........................................................................................................................",
"..++++...@@@@@.@++++@.@++++@.@@@@@@.@++++@.@++++@.@++++@.@++++@.@++++@................++++....++++.........++++....++++...",
".+....+.@....+.@....+.@....+.+....+.+....@.+....@.@....+.+....+.+....+..@+...........+....+..+....+...@+..+....+..+....+..",
".+....+.@....+.@....+.@....+.+....+.+....@.+....@.@....+.+....+.+....+..@+.......+...+....+..+....+...@+..+....+..+....+..",
".+....+.@....+.@....+.@....+.+....+.+....@.+....@.@....+.+....+.+....+...........+...+....+..+....+.......+....+..+....+..",
".@@@@@@..@@@@@.@++++@.@++++@.@++++@.@++++@.@++++@..@@@@@.@++++@.@++++@.........+++++.@@@@@@..@@@@@@.......@@@@@@..@@@@@@..",
".+....+.@....+.+....@.@....+.@....+.@....+.+....+.@....+.+....+.@....+...........+...+....+..+....+.......+....+..+....+..",
".+....+.@....+.+....@.@....+.@....+.@....+.+....+.@....+.+....+.@....+..@+.......+...+....+..+....+...@+..+....+..+....+..",
".+....+.@....+.+....@.@....+.@....+.@....+.+....+.@....+.+....+.@....+..@+...........+....+..+....+...@+..+....+..+....+..",
"..++++...@@@@@.@++++@.@++++@..@@@@@.@++++@.@++++@..@@@@@.@++++@.@++++@................++++....++++.........++++....++++...",
".........................................................................................................................."};
