/* XPM */
static char *minisys[] = {
/* columns rows colors chars-per-pixel */
"48 48 90 1",
"  c black",
". c #010101",
"X c #020202",
"o c gray1",
"O c #060606",
"+ c gray3",
"@ c #0C0C0C",
"# c gray5",
"$ c #0E0E0E",
"% c gray6",
"& c #101010",
"* c #111111",
"= c gray7",
"- c gray8",
"; c #151515",
": c #161616",
"> c gray9",
", c #181818",
"< c gray11",
"1 c #1E1E1E",
"2 c #202020",
"3 c gray13",
"4 c #222222",
"5 c gray15",
"6 c #282828",
"7 c gray18",
"8 c #313131",
"9 c #323232",
"0 c gray20",
"q c #373737",
"w c #3E3E3E",
"e c #3F3F3F",
"r c gray25",
"t c #434343",
"y c #464646",
"u c gray28",
"i c #494949",
"p c gray34",
"a c gray37",
"s c #646464",
"d c #686868",
"f c DimGray",
"g c #6F6F6F",
"h c #717171",
"j c gray47",
"k c #7C7C7C",
"l c #808080",
"z c gray51",
"x c gray55",
"c c #909090",
"v c gray59",
"b c #9A9A9A",
"n c gray62",
"m c #9F9F9F",
"M c gray63",
"N c #AAAAAA",
"B c gray69",
"V c #B4B4B4",
"C c #B6B6B6",
"Z c gray72",
"A c gray74",
"S c #C0C0C0",
"D c #C1C1C1",
"F c #C3C3C3",
"G c gray77",
"H c #C6C6C6",
"J c #C8C8C8",
"K c #CBCBCB",
"L c #D0D0D0",
"P c #D2D2D2",
"I c #D7D7D7",
"U c gray86",
"Y c gainsboro",
"T c #DFDFDF",
"R c gray92",
"E c #EEEEEE",
"W c #EFEFEF",
"Q c gray94",
"! c #F1F1F1",
"~ c gray95",
"^ c #F3F3F3",
"/ c #F4F4F4",
"( c gray96",
") c gray98",
"_ c #FBFBFB",
"` c gray99",
"' c #FDFDFD",
"] c #FEFEFE",
"[ c gray100",
"{ c None",
/* pixels */
"{{{{{{{{{{{{{{{{{{{{{{{{{{{{{{{{{{{{{{{{{{{{{{{{",
"{{{{{[[[[[[[[[[[[[[[[[[[[[[[[[[[[[[[[[[[[[[{{{{{",
"{{{[[[[[[[[[[[[[[[[[[[[[[[[[[[[[[[[[[[[[[[[[[{{{",
"{{[[[[[[[[[[[[[[[[[[[[[[[[[[[[[[[[[[[[[[[[[[[[{{",
"{[[[[[[[[))))))))))))))))))))))))))))))[[[[[[[[{",
"{[[[[[Ujw000000q00000000000000000000000qsF[[[[[{",
"[[[[[Z-                                   x[[[[[",
"[[[[T<                                     V[[[[",
"[[[[k     *---,-------------,-,---,-,*O    i[[[[",
"[[[[i   %vW(!!!!(!(!(!(!!(!!!!!(!!!!!(Z5   -![[[",
"[[[[r   z[[[[[[[[[[[[[[[[[[[[[[[[[[[[[[A   %R[[[",
"[[[[r   S[[[[[[[[[[[[[[[[[[[[[[[[[[[[[[!<  %R[[[",
"[[[[w   S[[TnMMMMMMMMMMMMMMMMMMMMMMbP[[(3  *R[[[",
"[[[[w  OF[[M                        k[[(3  %R[[[",
"[[[[r   F[[M                        z[[(3  %R[[[",
"[[[[r   F[[M                        z[[(3  %R[[[",
"[[[[r  OS[[M                        z[[(3  %R[[[",
"[[[[r   F[[M                        z[[(3  %R[[[",
"[[[[r   F[[M                        k[[(3  %R[[[",
"[[[[r  OF[[M                        z[[(3  %R[[[",
"[[[[r   F[[M                        k[[(3  %R[[[",
"[[[[r   F[[M                        z[[(3  %R[[[",
"[[[[r  OS[[M                        z[[(3  %R[[[",
"[[[)r   F[[M                        k[[(3  %R[[[",
"[[[[w   F[[M                        z[[(3  %R[[[",
"[[[[w   F[[M                        k[[(3  %R[[[",
"[[[[r   F[[M                        z[[(3  %R[[[",
"[[[[r  OS[[M                        z[[(3  %R[[[",
"[[[[r   F[[M                        z[[(3  %R[[[",
"[[[[r   F[[M                        k[[(3  %R[[[",
"[[[[r  OF[[M                        z[[(3  %R[[[",
"[[[[r   S[[M                        z[[(3  %R[[[",
"[[[[r   F[[M       O                k[[(3  %R[[[",
"[[[[r   F[[M  +---*                 z[[(3  %R[[[",
"[[[[r  OF[[M                        k[[(3  %R[[[",
"[[[[r   F[[JsffffffffffffffffffffffaC[[(3  %R[[[",
"[[[[w   S[[[[[[[[[[[[[[[[[[[[[[[[[[[[[[(3  %R[[[",
"[[[)w   c[[[[[[[[[[[[[[[[[[[[[[[[[[[[[[KO  %R[[[",
"[[[[y   ,C))))))))))))))))))))))))))))Iq   *W[[[",
"[[[[h    O5007007007070000707007007007+    w[[[[",
"[[[[P*                                     n[[[[",
"[[[[[MO                                   g[[[[[",
"{[[[[[Fp<%%%%%%%%%%%%%%%%%%%%%%%%%%%%%%-rN[[[[[{",
"{[[[[[[[(!!W!W!!!W!W!!W!!!!W!!W!!!!W!!!![[[[[[[{",
"{{[[[[[[[[[[[[[[[[[[[[[[[[[[[[[[[[[[[[[[[[[[[[{{",
"{{{[[[[[[[[[[[[[[[[[[[[[[[[[[[[[[[[[[[[[[[[[[{{{",
"{{{{[[[[[[[[[[[[[[[[[[[[[[[[[[[[[[[[[[[[[[[[{{{{",
"{{{{{{{{{{{{{{{{{{{{{{{{{{{{{{{{{{{{{{{{{{{{{{{{"
};
