/* XPM */
static char *minisys[] = {
/* columns rows colors chars-per-pixel */
"32 32 15 1",
"  c black",
". c #004000",
"X c #400000",
"o c #404000",
"O c #008000",
"+ c green",
"@ c #408000",
"# c #800000",
"$ c #804000",
"% c red",
"& c #808000",
"* c #80FF00",
"= c #FF8000",
"- c yellow",
"; c None",
/* pixels */
";;;;;;;;;;;;;;;;;;;;;;;;;;;;;;;;",
";;;;;;;;;;;;;;;;;;;;;;;;;;;;;;;;",
";;             ;;;             ;",
";;             ;;;             ;",
";;             ;;;             ;",
";;             ;;;             ;",
";;    o&&&o    ;;;    o&&&o    ;",
";;    &---&    ;;;    &---&    ;",
";;    &---&    ;;;    &---&    ;",
";;    &---&    ;;;    &---&    ;",
";;    &---&    ;;;    &---&    ;",
";;    &---&    ;;;    &---&    ;",
";;    &---&    ;;;    $===$    ;",
";;    &---&    ;;;    #%%%#    ;",
";;    &---&    ;;;    #%%%#    ;",
";;    &---&    ;;;    #%%%#    ;",
";;    @***@    ;;;    #%%%#    ;",
";;    O+++O    ;;;    #%%%#    ;",
";;    O+++O    ;;;    #%%%#    ;",
";;    O+++O    ;;;    #%%%#    ;",
";;    O+++O    ;;;    #%%%#    ;",
";;    O+++O    ;;;    #%%%#    ;",
";;    O+++O    ;;;    #%%%#    ;",
";;    O+++O    ;;;    #%%%#    ;",
";;    O+++O    ;;;    #%%%#    ;",
";;    O+++O    ;;;    #%%%#    ;",
";;    .OOO.    ;;;    X###X    ;",
";;             ;;;             ;",
";;             ;;;             ;",
";;             ;;;             ;",
";;             ;;;             ;",
";;;;;;;;;;;;;;;;;;;;;;;;;;;;;;;;"
};
