/* XPM */
static char * oval_filled_xpm[] = {
"16 16 3 1",
"  s None c None",
". c #969696",
"# c #c8c8c8",
".###############",
".              #",
".              #",
".              #",
".              #",
".              #",
".              #",
".              #",
".              #",
".              #",
".              #",
".              #",
".              #",
".              #",
".              #",
"................"};