/* XPM */
static char *signal-81-100[] = {
/* columns rows colors chars-per-pixel */
"48 48 165 2",
"   c black",
".  c #010101",
"X  c #020202",
"o  c gray1",
"O  c #040404",
"+  c gray2",
"@  c #060606",
"#  c #070707",
"$  c gray3",
"%  c #090909",
"&  c gray4",
"*  c #0B0B0B",
"=  c gray6",
"-  c gray8",
";  c gray9",
":  c #191919",
">  c #1B1B1B",
",  c #1D1D1D",
"<  c #1E1E1E",
"1  c gray12",
"2  c #202020",
"3  c gray13",
"4  c gray14",
"5  c #282828",
"6  c gray16",
"7  c #2A2A2A",
"8  c #2C2C2C",
"9  c gray18",
"0  c #2F2F2F",
"q  c gray19",
"w  c #313131",
"e  c #343434",
"r  c #353535",
"t  c gray21",
"y  c #373737",
"u  c gray22",
"i  c #393939",
"p  c #3A3A3A",
"a  c gray23",
"s  c gray24",
"d  c gray25",
"f  c #414141",
"g  c #434343",
"h  c #484848",
"j  c #494949",
"k  c #4B4B4B",
"l  c #4C4C4C",
"z  c #4E4E4E",
"x  c gray31",
"c  c #505050",
"v  c #515151",
"b  c gray33",
"n  c #555555",
"m  c #585858",
"M  c #5D5D5D",
"N  c gray38",
"B  c #646464",
"V  c #656565",
"C  c #686868",
"Z  c DimGray",
"A  c #6A6A6A",
"S  c #6C6C6C",
"D  c #6D6D6D",
"F  c #6F6F6F",
"G  c gray44",
"H  c #717171",
"J  c gray45",
"K  c #747474",
"L  c #767676",
"P  c #797979",
"I  c #7C7C7C",
"U  c gray49",
"Y  c gray50",
"T  c green",
"R  c #3FFF3F",
"E  c #7FFF7F",
"W  c gray51",
"Q  c #848484",
"!  c gray52",
"~  c #868686",
"^  c gray53",
"/  c #888888",
"(  c gray54",
")  c gray55",
"_  c #8E8E8E",
"`  c gray56",
"'  c #959595",
"]  c gray59",
"[  c #979797",
"{  c gray60",
"}  c #9A9A9A",
"|  c #9D9D9D",
" . c #9F9F9F",
".. c #A0A0A0",
"X. c gray63",
"o. c gray64",
"O. c #A7A7A7",
"+. c gray66",
"@. c #A9A9A9",
"#. c #AAAAAA",
"$. c gray67",
"%. c #ACACAC",
"&. c gray68",
"*. c #AFAFAF",
"=. c #B2B2B2",
"-. c gray70",
";. c gray71",
":. c #B7B7B7",
">. c gray72",
",. c gray73",
"<. c #BBBBBB",
"1. c #BCBCBC",
"2. c gray74",
"3. c gray75",
"4. c #BFFFBF",
"5. c #C0C0C0",
"6. c #C1C1C1",
"7. c gray76",
"8. c #C5C5C5",
"9. c #C6C6C6",
"0. c #C8C8C8",
"q. c gray79",
"w. c #CACACA",
"e. c #CBCBCB",
"r. c gray80",
"t. c #CDCDCD",
"y. c #CECECE",
"u. c gray81",
"i. c gray82",
"p. c #D2D2D2",
"a. c LightGray",
"s. c #D5D5D5",
"d. c #D8D8D8",
"f. c #DADADA",
"g. c gray86",
"h. c gainsboro",
"j. c gray87",
"k. c #CFFFCF",
"l. c #DFFFDF",
"z. c gray88",
"x. c #E1E1E1",
"c. c gray89",
"v. c gray90",
"b. c #E7E7E7",
"n. c gray91",
"m. c #E9E9E9",
"M. c gray92",
"N. c #ECECEC",
"B. c gray93",
"V. c gray94",
"C. c #F1F1F1",
"Z. c gray95",
"A. c #F3F3F3",
"S. c #F4F4F4",
"D. c #F6F6F6",
"F. c gray97",
"G. c #F8F8F8",
"H. c #F9F9F9",
"J. c gray98",
"K. c #FBFBFB",
"L. c gray99",
"P. c #FDFDFD",
"I. c #FEFEFE",
"U. c gray100",
"Y. c None",
/* pixels */
"Y.Y.Y.Y.Y.Y.Y.Y.Y.Y.Y.Y.Y.Y.Y.Y.Y.Y.Y.Y.Y.Y.Y.Y.Y.Y.Y.Y.Y.Y.Y.Y.Y.Y.Y.Y.Y.Y.Y.Y.Y.Y.Y.Y.Y.Y.Y.Y.",
"Y.Y.Y.Y.Y.Y.Y.Y.Y.Y.Y.Y.Y.Y.Y.Y.Y.Y.Y.Y.Y.Y.Y.Y.Y.Y.Y.Y.Y.Y.Y.Y.Y.Y.Y.Y.Y.Y.Y.Y.Y.Y.Y.Y.Y.Y.Y.Y.",
"Y.Y.Y.Y.Y.Y.Y.Y.Y.Y.Y.Y.Y.Y.Y.Y.Y.Y.Y.Y.Y.Y.Y.Y.Y.Y.Y.Y.Y.Y.Y.Y.Y.Y.Y.Y.Y.Y.Y.Y.Y.Y.Y.Y.Y.Y.Y.Y.",
"Y.Y.Y.Y.Y.Y.Y.Y.Y.Y.Y.Y.Y.Y.Y.Y.Y.Y.Y.Y.Y.Y.Y.Y.Y.Y.Y.Y.Y.Y.Y.Y.Y.Y.Y.Y.Y.Y.Y.Y.Y.Y.Y.Y.Y.Y.Y.Y.",
"Y.Y.Y.Y.Y.Y.Y.Y.Y.Y.Y.Y.Y.Y.Y.Y.Y.Y.Y.Y.Y.Y.Y.Y.Y.Y.Y.Y.Y.Y.Y.Y.Y.Y.Y.Y.Y.Y.Y.Y.Y.Y.Y.Y.Y.Y.Y.Y.",
"Y.Y.Y.Y.Y.Y.Y.Y.Y.Y.Y.Y.Y.Y.Y.Y.Y.Y.Y.Y.Y.Y.Y.Y.Y.Y.Y.Y.Y.Y.Y.Y.Y.Y.Y.Y.Y.Y.Y.Y.Y.Y.Y.Y.Y.Y.Y.Y.",
"Y.Y.Y.Y.Y.Y.Y.Y.Y.Y.Y.Y.Y.Y.Y.Y.Y.Y.Y.Y.Y.Y.Y.Y.Y.Y.Y.Y.Y.Y.Y.Y.Y.Y.Y.Y.Y.Y.Y.Y.Y.Y.Y.Y.Y.Y.Y.Y.",
"Y.Y.Y.Y.Y.Y.Y.Y.Y.Y.Y.Y.Y.Y.Y.Y.Y.Y.Y.Y.Y.Y.Y.Y.Y.Y.Y.Y.Y.Y.Y.Y.Y.Y.Y.Y.Y.Y.Y.Y.Y.Y.Y.Y.Y.Y.Y.Y.",
"Y.Y.Y.Y.Y.Y.Y.Y.Y.Y.Y.Y.Y.Y.Y.Y.Y.Y.Y.Y.Y.Y.Y.Y.Y.Y.Y.Y.Y.Y.Y.Y.Y.Y.Y.Y.Y.Y.Y.Y.Y.Y.Y.Y.Y.Y.Y.Y.",
"Y.Y.Y.Y.Y.Y.Y.Y.Y.Y.Y.Y.Y.Y.Y.U.U.U.U.U.U.U.U.U.U.U.U.U.U.U.U.U.U.U.U.U.Y.Y.Y.Y.Y.Y.Y.Y.Y.Y.Y.Y.",
"Y.Y.Y.Y.Y.Y.Y.Y.Y.Y.Y.U.U.U.U.U.U.U.U.U.U.U.U.U.U.U.U.U.U.U.U.U.U.U.U.U.U.U.U.Y.Y.Y.Y.Y.Y.Y.Y.Y.",
"Y.Y.Y.Y.Y.Y.Y.Y.Y.U.U.U.U.U.U.U.U.U.U.K.C.z.a.w.7.7.8.r.h.B.F.U.U.U.U.U.U.U.U.U.U.Y.Y.Y.Y.Y.Y.Y.",
"Y.Y.Y.Y.Y.Y.Y.U.U.U.U.U.U.U.K.g.@.Y b w - $             O - 4 z L  .r.K.U.U.U.U.U.U.U.Y.Y.Y.Y.Y.",
"Y.Y.Y.Y.Y.Y.U.U.U.U.U.U.r.W y $               $ $ $ $ O               6 H ,.K.U.U.U.U.U.Y.Y.Y.Y.",
"Y.Y.Y.Y.Y.U.U.U.U.U.;.j O       - a V ! o.2.r.h.v.v.h.a.7.@._ F h >         y  .F.U.U.U.U.Y.Y.Y.",
"Y.Y.Y.Y.U.U.U.U.g.b       6 F =.M.U.U.U.U.U.U.U.U.U.U.U.U.U.U.U.U.C.7.Y y       y 8.U.U.U.U.Y.Y.",
"Y.Y.Y.U.U.U.U.8.3     d @.F.U.U.U.U.U.U.U.U.U.U.K.K.U.U.U.U.U.U.U.U.U.U.K.7.b     = o.U.U.U.U.Y.",
"Y.Y.Y.U.U.U.g.>   -  .U.U.U.U.U.U.K.a.@.! C c d y y a j N Y o.w.C.U.U.U.U.U.U.,.w     =.U.U.U.Y.",
"Y.Y.Y.U.U.U.c   < i.U.U.U.U.U.w.P w O                           3 C ;.K.U.U.U.U.M.y   0 F.U.U.Y.",
"Y.Y.Y.U.U.z.$   o.U.U.U.U.8.z O       - i b F Y ! ! Y H M d <         i =.U.U.U.U.i.$   ,.U.U.Y.",
"Y.Y.Y.U.U.r.    z.U.U.U.[ $     0 L ,.B.U.U.U.U.U.U.U.U.U.U.C.w.! a       F K.U.U.U.0   { U.U.Y.",
"Y.Y.Y.U.U.F.W _ K.U.U.{     y %.K.U.U.U.U.U.U.U.U.U.U.U.U.U.U.U.U.U.8.c     F U.U.U.%.H M.U.U.Y.",
"Y.Y.Y.U.U.U.U.U.U.U.C.<   c C.U.U.U.U.U.F.g.=.{ _ / [ %.r.C.U.U.U.U.U.U.L   O a.U.U.U.U.U.U.U.Y.",
"Y.Y.Y.U.U.U.U.U.U.U.r.    i.U.U.U.U.2.V 6 O               < b O.F.U.U.U.K.<   [ U.U.U.U.U.U.U.Y.",
"Y.Y.Y.Y.Y.U.U.U.U.U.M.i z K.U.U.M.n         $ < 0 w 3 =         i r.U.U.U.Y 0 r.U.U.U.U.U.U.Y.Y.",
"Y.Y.Y.Y.Y.Y.Y.U.U.U.U.K.U.U.U.C.i     y / 7.M.C.K.K.F.M.w.{ z     < h.U.U.U.K.U.U.U.Y.Y.Y.Y.Y.Y.",
"Y.Y.Y.Y.Y.Y.Y.U.U.U.U.U.U.U.U.@.    [ K.U.U.U.U.U.U.U.U.U.U.U.,.<   H U.U.U.U.U.U.U.U.Y.Y.Y.Y.Y.",
"Y.Y.Y.Y.Y.Y.U.U.U.U.U.U.U.U.U. .  j U.U.U.U.U.U.U.U.U.U.U.U.U.U.!   C U.U.U.U.U.U.U.U.Y.Y.Y.Y.Y.",
"Y.Y.Y.Y.Y.U.U.U.U.U.U.U.U.U.U.K.%.z.U.U.U.U.U.U.U.U.U.U.K.U.U.U.C.%.M.U.U.U.U.U.U.U.U.U.Y.Y.Y.Y.",
"Y.Y.Y.Y.U.U.U.U.U.U.U.U.U.U.U.U.U.U.U.U.U.U.U.U.U.U.U.U.U.U.U.U.U.U.U.U.U.U.U.U.U.U.U.U.U.Y.Y.Y.",
"Y.Y.Y.Y.U.U.U.U.U.U.U.U.U.U.U.U.U.U.U.U.U.U.U.U.U.U.U.U.U.U.U.U.U.U.U.U.U.U.U.U.U.U.U.U.U.Y.Y.Y.",
"Y.Y.Y.Y.U.U.U.k.R R R R R R R k.U.U.U.U.k.R R R R R R R k.U.U.U.U.k.R R R R R R R k.U.U.U.Y.Y.Y.",
"Y.Y.Y.Y.U.U.U.4.T T T T T T T 4.U.U.U.U.4.T T T T T T T 4.U.U.U.U.4.T T T T T T T 4.U.U.U.Y.Y.Y.",
"Y.Y.Y.Y.U.U.U.4.T T T T T T T 4.U.U.U.U.4.T T T T T T T 4.U.U.U.U.4.T T T T T T T 4.U.U.U.Y.Y.Y.",
"Y.Y.Y.Y.U.U.U.4.T T T T T T T 4.U.U.U.U.4.T T T T T T T 4.U.U.U.U.4.T T T T T T T 4.U.U.U.Y.Y.Y.",
"Y.Y.Y.Y.U.U.U.4.T T T T T T T 4.U.U.U.U.4.T T T T T T T 4.U.U.U.U.4.T T T T T T T 4.U.U.U.Y.Y.Y.",
"Y.Y.Y.Y.U.U.U.4.T T T T T T T 4.U.U.U.U.4.T T T T T T T 4.U.U.U.U.4.T T T T T T T 4.U.U.U.Y.Y.Y.",
"Y.Y.Y.Y.U.U.U.l.E E E E E E E l.U.U.U.U.l.E E E E E E E l.U.U.U.U.l.E E E E E E E l.U.U.U.Y.Y.Y.",
"Y.Y.Y.Y.U.U.U.U.U.U.U.U.U.U.U.U.U.U.U.U.U.U.U.U.U.U.U.U.U.U.U.U.U.U.U.U.U.U.U.U.U.U.U.U.U.Y.Y.Y.",
"Y.Y.Y.Y.U.U.U.U.U.U.U.U.U.U.U.U.U.U.U.U.U.U.U.U.U.U.U.U.U.U.U.U.U.U.U.U.U.U.U.U.U.U.U.U.U.Y.Y.Y.",
"Y.Y.Y.Y.Y.U.U.U.U.U.U.U.U.U.U.U.U.U.U.U.U.U.U.U.U.U.U.U.U.U.U.U.U.U.U.U.U.U.U.U.U.U.U.U.Y.Y.Y.Y.",
"Y.Y.Y.Y.Y.Y.Y.Y.Y.Y.Y.Y.Y.Y.Y.Y.Y.Y.Y.Y.Y.Y.Y.Y.Y.Y.Y.Y.Y.Y.Y.Y.Y.Y.Y.Y.Y.Y.Y.Y.Y.Y.Y.Y.Y.Y.Y.Y.",
"Y.Y.Y.Y.Y.Y.Y.Y.Y.Y.Y.Y.Y.Y.Y.Y.Y.Y.Y.Y.Y.Y.Y.Y.Y.Y.Y.Y.Y.Y.Y.Y.Y.Y.Y.Y.Y.Y.Y.Y.Y.Y.Y.Y.Y.Y.Y.Y.",
"Y.Y.Y.Y.Y.Y.Y.Y.Y.Y.Y.Y.Y.Y.Y.Y.Y.Y.Y.Y.Y.Y.Y.Y.Y.Y.Y.Y.Y.Y.Y.Y.Y.Y.Y.Y.Y.Y.Y.Y.Y.Y.Y.Y.Y.Y.Y.Y.",
"Y.Y.Y.Y.Y.Y.Y.Y.Y.Y.Y.Y.Y.Y.Y.Y.Y.Y.Y.Y.Y.Y.Y.Y.Y.Y.Y.Y.Y.Y.Y.Y.Y.Y.Y.Y.Y.Y.Y.Y.Y.Y.Y.Y.Y.Y.Y.Y.",
"Y.Y.Y.Y.Y.Y.Y.Y.Y.Y.Y.Y.Y.Y.Y.Y.Y.Y.Y.Y.Y.Y.Y.Y.Y.Y.Y.Y.Y.Y.Y.Y.Y.Y.Y.Y.Y.Y.Y.Y.Y.Y.Y.Y.Y.Y.Y.Y.",
"Y.Y.Y.Y.Y.Y.Y.Y.Y.Y.Y.Y.Y.Y.Y.Y.Y.Y.Y.Y.Y.Y.Y.Y.Y.Y.Y.Y.Y.Y.Y.Y.Y.Y.Y.Y.Y.Y.Y.Y.Y.Y.Y.Y.Y.Y.Y.Y.",
"Y.Y.Y.Y.Y.Y.Y.Y.Y.Y.Y.Y.Y.Y.Y.Y.Y.Y.Y.Y.Y.Y.Y.Y.Y.Y.Y.Y.Y.Y.Y.Y.Y.Y.Y.Y.Y.Y.Y.Y.Y.Y.Y.Y.Y.Y.Y.Y."
};
