/* XPM */
static char *signal-41-60[] = {
/* columns rows colors chars-per-pixel */
"48 48 115 2",
"   c black",
".  c #010101",
"X  c #020202",
"o  c gray1",
"O  c #040404",
"+  c #060606",
"@  c #070707",
"#  c #0B0B0B",
"$  c #0C0C0C",
"%  c gray6",
"&  c #111111",
"*  c #131313",
"=  c #151515",
"-  c #1B1B1B",
";  c #1D1D1D",
":  c #1E1E1E",
">  c gray12",
",  c #202020",
"<  c gray13",
"1  c #222222",
"2  c #252525",
"3  c #272727",
"4  c #2A2A2A",
"5  c gray17",
"6  c #2D2D2D",
"7  c #343434",
"8  c #353535",
"9  c gray21",
"0  c gray22",
"q  c #3E3E3E",
"w  c #3F3F3F",
"e  c #444444",
"r  c #515151",
"t  c gray32",
"y  c gray34",
"u  c gray35",
"i  c #5A5A5A",
"p  c #5B5B5B",
"a  c gray36",
"s  c #5D5D5D",
"d  c gray37",
"f  c #626262",
"g  c gray39",
"h  c DimGray",
"j  c #6D6D6D",
"k  c gray44",
"l  c gray46",
"z  c #767676",
"x  c #777777",
"c  c #797979",
"v  c gray48",
"b  c gray49",
"n  c gray50",
"m  c #FCF000",
"M  c #FDF43F",
"N  c #FDF77F",
"B  c #808080",
"V  c #868686",
"C  c gray53",
"Z  c #898989",
"A  c #8B8B8B",
"S  c #8D8D8D",
"D  c #929292",
"F  c #939393",
"G  c gray59",
"H  c #A2A2A2",
"J  c #A4A4A4",
"K  c #A7A7A7",
"L  c gray66",
"P  c #AFAFAF",
"I  c #B9B9B9",
"U  c gray73",
"Y  c #BBBBBB",
"T  c #BCBCBC",
"R  c gray75",
"E  c #FEFBBF",
"W  c #C3C3C3",
"Q  c gray77",
"!  c #C5C5C5",
"~  c gray78",
"^  c #C8C8C8",
"/  c gray79",
"(  c #CECECE",
")  c gray81",
"_  c gray82",
"`  c LightGray",
"'  c gray83",
"]  c #D5D5D5",
"[  c gray84",
"{  c #D7D7D7",
"}  c #DADADA",
"|  c gainsboro",
" . c #DFDFDF",
".. c #FEFCCF",
"X. c #FFFDDF",
"o. c #E1E1E1",
"O. c #E2E2E2",
"+. c gray89",
"@. c #E7E7E7",
"#. c #E9E9E9",
"$. c #EAEAEA",
"%. c gray92",
"&. c #F1F1F1",
"*. c gray95",
"=. c #F3F3F3",
"-. c #F4F4F4",
";. c gray96",
":. c gray97",
">. c #F8F8F8",
",. c gray98",
"<. c #FBFBFB",
"1. c gray99",
"2. c #FEFEFE",
"3. c gray100",
"4. c None",
/* pixels */
"4.4.4.4.4.4.4.4.4.4.4.4.4.4.4.4.4.4.4.4.4.4.4.4.4.4.4.4.4.4.4.4.4.4.4.4.4.4.4.4.4.4.4.4.4.4.4.4.",
"4.4.4.4.4.4.4.4.4.4.4.4.4.4.4.4.4.4.4.4.4.4.4.4.4.4.4.4.4.4.4.4.4.4.4.4.4.4.4.4.4.4.4.4.4.4.4.4.",
"4.4.4.4.4.4.4.4.4.4.4.4.4.4.4.4.4.4.4.4.4.4.4.4.4.4.4.4.4.4.4.4.4.4.4.4.4.4.4.4.4.4.4.4.4.4.4.4.",
"4.4.4.4.4.4.4.4.4.4.4.4.4.4.4.4.4.4.4.4.4.4.4.4.4.4.4.4.4.4.4.4.4.4.4.4.4.4.4.4.4.4.4.4.4.4.4.4.",
"4.4.4.4.4.4.4.4.4.4.4.4.4.4.4.4.4.4.4.4.4.4.4.4.4.4.4.4.4.4.4.4.4.4.4.4.4.4.4.4.4.4.4.4.4.4.4.4.",
"4.4.4.4.4.4.4.4.4.4.4.4.4.4.4.4.4.4.4.4.4.4.4.4.4.4.4.4.4.4.4.4.4.4.4.4.4.4.4.4.4.4.4.4.4.4.4.4.",
"4.4.4.4.4.4.4.4.4.4.4.4.4.4.4.4.4.4.4.4.4.4.4.4.4.4.4.4.4.4.4.4.4.4.4.4.4.4.4.4.4.4.4.4.4.4.4.4.",
"4.4.4.4.4.4.4.4.4.4.4.4.4.4.4.4.4.4.4.4.4.4.4.4.4.4.4.4.4.4.4.4.4.4.4.4.4.4.4.4.4.4.4.4.4.4.4.4.",
"4.4.4.4.4.4.4.4.4.4.4.4.4.4.4.4.4.4.4.4.4.4.4.4.4.4.4.4.4.4.4.4.4.4.4.4.4.4.4.4.4.4.4.4.4.4.4.4.",
"4.4.4.4.4.4.4.4.4.4.4.4.4.4.4.4.4.4.4.4.4.4.4.4.4.4.4.4.4.4.4.4.4.4.4.4.4.4.4.4.4.4.4.4.4.4.4.4.",
"4.4.4.4.4.4.4.4.4.4.4.4.4.4.4.4.4.4.4.4.4.4.4.4.4.4.4.4.4.4.4.4.4.4.4.4.4.4.4.4.4.4.4.4.4.4.4.4.",
"4.4.4.4.4.4.4.4.4.4.4.4.4.4.4.4.4.4.4.4.4.4.4.4.4.4.4.4.4.4.4.4.4.4.4.4.4.4.4.4.4.4.4.4.4.4.4.4.",
"4.4.4.4.4.4.4.4.4.4.4.4.4.4.4.4.4.4.4.4.4.4.4.4.4.4.4.4.4.4.4.4.4.4.4.4.4.4.4.4.4.4.4.4.4.4.4.4.",
"4.4.4.4.4.4.4.4.4.4.4.4.4.4.4.4.4.4.4.4.4.4.4.4.4.4.4.4.4.4.4.4.4.4.4.4.4.4.4.4.4.4.4.4.4.4.4.4.",
"4.4.4.4.4.4.4.4.4.4.4.4.4.4.4.4.4.4.4.4.4.4.4.4.4.4.4.4.4.4.4.4.4.4.4.4.4.4.4.4.4.4.4.4.4.4.4.4.",
"4.4.4.4.4.4.4.4.4.4.4.4.4.4.4.4.3.3.3.3.3.3.3.3.3.3.3.3.3.3.3.3.3.3.4.4.4.4.4.4.4.4.4.4.4.4.4.4.",
"4.4.4.4.4.4.4.4.4.4.4.4.4.3.3.3.3.3.3.3.3.3.3.3.3.3.3.3.3.3.3.3.3.3.3.3.4.4.4.4.4.4.4.4.4.4.4.4.",
"4.4.4.4.4.4.4.4.4.4.4.4.3.3.3.3.3.3.3.3.3.=.@.} ` ` | %.=.3.3.3.3.3.3.3.3.3.4.4.4.4.4.4.4.4.4.4.",
"4.4.4.4.4.4.4.4.4.4.3.3.3.3.3.3.*.U B y 9 - # O O O # $ : 9 i C W =.3.3.3.3.3.3.4.4.4.4.4.4.4.4.",
"4.4.4.4.4.4.4.4.4.3.3.3.3.3.~ h 1                                 4 x } 3.3.3.3.3.4.4.4.4.4.4.4.",
"4.4.4.4.4.4.4.4.3.3.3.3.+.s O     O 6 f Z L R ~ ( ( ~ U J C s 2       * v =.3.3.3.3.4.4.4.4.4.4.",
"4.4.4.4.4.4.4.4.3.3.3.` 6     6 Z _ :.3.3.3.3.3.3.3.3.3.3.3.3.=.~ n 1     q +.3.3.3.4.4.4.4.4.4.",
"4.4.4.4.4.4.4.3.3.3.=.9   $ D *.3.3.3.3.3.3.3.3.3.3.3.3.3.3.3.3.3.3.@.v     r 3.3.3.4.4.4.4.4.4.",
"4.4.4.4.4.4.4.3.3.3.L   $ U 3.3.3.3.3.*.R S j i r r s k D ~ =.3.3.3.3.3.G     ~ 3.3.4.4.4.4.4.4.",
"4.4.4.4.4.4.4.3.3.3.n   e 3.3.3.3._ h 1                     2 x O.3.3.3.:.=   L 3.3.4.4.4.4.4.4.",
"4.4.4.4.4.4.4.3.3.3.` s P 3.3.3.H *       1 e i f f y q :       1 U 3.3.3.G g +.3.3.4.4.4.4.4.4.",
"4.4.4.4.4.4.4.4.3.3.3.3.3.3.3.U     : v ~ =.3.3.3.3.3.3.*.W k *   * ` 3.3.3.3.3.3.3.4.4.4.4.4.4.",
"4.4.4.4.4.4.4.3.3.3.3.3.3.3.3.i   9 O.3.3.3.3.3.3.3.3.3.3.3.3.` :   x 3.3.3.3.3.3.3.4.4.4.4.4.4.",
"4.4.4.4.4.3.3.3.3.3.3.3.3.3.3.v # L 3.3.3.3.3.3.3.3.3.3.3.3.3.3.C # D 3.3.3.3.3.3.3.3.3.4.4.4.4.",
"4.4.4.4.3.3.3.3.3.3.3.3.3.3.3.3.3.3.3.3.3.3.3.3.3.3.3.3.3.3.3.3.3.3.3.3.3.3.3.3.3.3.3.3.3.4.4.4.",
"4.4.4.4.3.3.3.3.3.3.3.3.3.3.3.3.3.3.3.3.3.3.3.3.3.3.3.3.3.3.3.3.3.3.3.3.3.3.3.3.3.3.3.3.3.4.4.4.",
"4.4.4.4.3.3.3...M M M M M M M ..3.3.3.3...M M M M M M M ..3.3.3.3._ q q q q e q q ( 3.3.3.4.4.4.",
"4.4.4.4.3.3.3.E m m m m m m m E 3.3.3.3.E m m m m m m m E 3.3.3.3.R               R 3.3.3.4.4.4.",
"4.4.4.4.3.3.3.E m m m m m m m E 3.3.3.3.E m m m m m m m E 3.3.3.3.R               R 3.3.3.4.4.4.",
"4.4.4.4.3.3.3.E m m m m m m m E 3.3.3.3.E m m m m m m m E 3.3.3.3.R               R 3.3.3.4.4.4.",
"4.4.4.4.3.3.3.E m m m m m m m E 3.3.3.3.E m m m m m m m E 3.3.3.3.R               R 3.3.3.4.4.4.",
"4.4.4.4.3.3.3.E m m m m m m m E 3.3.3.3.E m m m m m m m E 3.3.3.3.R               W 3.3.3.4.4.4.",
"4.4.4.4.3.3.3.X.N N N N N N N X.3.3.3.3.X.N N N N N N N X.3.3.3.3.| n n n n n n n | 3.3.3.4.4.4.",
"4.4.4.4.3.3.3.3.3.3.3.3.3.3.3.3.3.3.3.3.3.3.3.3.3.3.3.3.3.3.3.3.3.3.3.3.3.3.3.3.3.3.3.3.3.4.4.4.",
"4.4.4.4.3.3.3.3.3.3.3.3.3.3.3.3.3.3.3.3.3.3.3.3.3.3.3.3.3.3.3.3.3.3.3.3.3.3.3.3.3.3.3.3.3.4.4.4.",
"4.4.4.4.4.3.3.3.3.3.3.3.3.3.3.3.3.3.3.3.3.3.3.3.3.3.3.3.3.3.3.3.3.3.3.3.3.3.3.3.3.3.3.3.4.4.4.4.",
"4.4.4.4.4.4.4.4.4.4.4.4.4.4.4.4.4.4.4.4.4.4.4.4.4.4.4.4.4.4.4.4.4.4.4.4.4.4.4.4.4.4.4.4.4.4.4.4.",
"4.4.4.4.4.4.4.4.4.4.4.4.4.4.4.4.4.4.4.4.4.4.4.4.4.4.4.4.4.4.4.4.4.4.4.4.4.4.4.4.4.4.4.4.4.4.4.4.",
"4.4.4.4.4.4.4.4.4.4.4.4.4.4.4.4.4.4.4.4.4.4.4.4.4.4.4.4.4.4.4.4.4.4.4.4.4.4.4.4.4.4.4.4.4.4.4.4.",
"4.4.4.4.4.4.4.4.4.4.4.4.4.4.4.4.4.4.4.4.4.4.4.4.4.4.4.4.4.4.4.4.4.4.4.4.4.4.4.4.4.4.4.4.4.4.4.4.",
"4.4.4.4.4.4.4.4.4.4.4.4.4.4.4.4.4.4.4.4.4.4.4.4.4.4.4.4.4.4.4.4.4.4.4.4.4.4.4.4.4.4.4.4.4.4.4.4.",
"4.4.4.4.4.4.4.4.4.4.4.4.4.4.4.4.4.4.4.4.4.4.4.4.4.4.4.4.4.4.4.4.4.4.4.4.4.4.4.4.4.4.4.4.4.4.4.4.",
"4.4.4.4.4.4.4.4.4.4.4.4.4.4.4.4.4.4.4.4.4.4.4.4.4.4.4.4.4.4.4.4.4.4.4.4.4.4.4.4.4.4.4.4.4.4.4.4."
};
