/* XPM */
static char *signal-1-40[] = {
/* columns rows colors chars-per-pixel */
"48 48 73 1",
"  c black",
". c #020202",
"X c gray1",
"o c gray2",
"O c #060606",
"+ c #070707",
"@ c gray3",
"# c #111111",
"$ c #131313",
"% c gray9",
"& c gray13",
"* c gray20",
"= c gray22",
"- c gray24",
"; c #3F3F3F",
": c gray26",
"> c #434343",
", c #494949",
"< c gray29",
"1 c #4B4B4B",
"2 c gray31",
"3 c #5A5A5A",
"4 c #646464",
"5 c gray40",
"6 c #6A6A6A",
"7 c gray42",
"8 c #6D6D6D",
"9 c #797979",
"0 c gray49",
"q c #7E7E7E",
"w c gray50",
"e c #FCF000",
"r c #FDF43F",
"t c #FDF77F",
"y c #8D8D8D",
"u c #929292",
"i c gray63",
"p c gray64",
"a c gray66",
"s c #A9A9A9",
"d c #AAAAAA",
"f c #ACACAC",
"g c #B7B7B7",
"h c gray",
"j c gray75",
"k c #FEFBBF",
"l c #C1C1C1",
"z c #CBCBCB",
"x c gray80",
"c c #CDCDCD",
"v c #CECECE",
"b c gray81",
"n c #D5D5D5",
"m c gray85",
"M c gray86",
"N c gray87",
"B c #DFDFDF",
"V c #FEFCCF",
"C c #FFFDDF",
"Z c #E4E4E4",
"A c #ECECEC",
"S c gray93",
"D c #EEEEEE",
"F c #EFEFEF",
"G c gray94",
"H c #F3F3F3",
"J c #F4F4F4",
"K c gray98",
"L c gray99",
"P c #FDFDFD",
"I c #FEFEFE",
"U c gray100",
"Y c None",
/* pixels */
"YYYYYYYYYYYYYYYYYYYYYYYYYYYYYYYYYYYYYYYYYYYYYYYY",
"YYYYYYYYYYYYYYYYYYYYYYYYYYYYYYYYYYYYYYYYYYYYYYYY",
"YYYYYYYYYYYYYYYYYYYYYYYYYYYYYYYYYYYYYYYYYYYYYYYY",
"YYYYYYYYYYYYYYYYYYYYYYYYYYYYYYYYYYYYYYYYYYYYYYYY",
"YYYYYYYYYYYYYYYYYYYYYYYYYYYYYYYYYYYYYYYYYYYYYYYY",
"YYYYYYYYYYYYYYYYYYYYYYYYYYYYYYYYYYYYYYYYYYYYYYYY",
"YYYYYYYYYYYYYYYYYYYYYYYYYYYYYYYYYYYYYYYYYYYYYYYY",
"YYYYYYYYYYYYYYYYYYYYYYYYYYYYYYYYYYYYYYYYYYYYYYYY",
"YYYYYYYYYYYYYYYYYYYYYYYYYYYYYYYYYYYYYYYYYYYYYYYY",
"YYYYYYYYYYYYYYYYYYYYYYYYYYYYYYYYYYYYYYYYYYYYYYYY",
"YYYYYYYYYYYYYYYYYYYYYYYYYYYYYYYYYYYYYYYYYYYYYYYY",
"YYYYYYYYYYYYYYYYYYYYYYYYYYYYYYYYYYYYYYYYYYYYYYYY",
"YYYYYYYYYYYYYYYYYYYYYYYYYYYYYYYYYYYYYYYYYYYYYYYY",
"YYYYYYYYYYYYYYYYYYYYYYYYYYYYYYYYYYYYYYYYYYYYYYYY",
"YYYYYYYYYYYYYYYYYYYYYYYYYYYYYYYYYYYYYYYYYYYYYYYY",
"YYYYYYYYYYYYYYYYYYYYYYYYYYYYYYYYYYYYYYYYYYYYYYYY",
"YYYYYYYYYYYYYYYYYYYYYYYYYYYYYYYYYYYYYYYYYYYYYYYY",
"YYYYYYYYYYYYYYYYYYYYYYYYYYYYYYYYYYYYYYYYYYYYYYYY",
"YYYYYYYYYYYYYYYYYYYYYYYYYYYYYYYYYYYYYYYYYYYYYYYY",
"YYYYYYYYYYYYYYYYYYYYYYYYYYYYYYYYYYYYYYYYYYYYYYYY",
"YYYYYYYYYYYYYYYYYYUUUUUUUUUUUUUUYYYYYYYYYYYYYYYY",
"YYYYYYYYYYYYYYYYUUUUUUUUUUUUUUUUUUYYYYYYYYYYYYYY",
"YYYYYYYYYYYYYYUUUUUUUKSmvvmGUUUUUUUUYYYYYYYYYYYY",
"YYYYYYYYYYYYYUUUUUZi5*#OO O#=7aSUUUUUYYYYYYYYYYY",
"YYYYYYYYYYYYYUUUHq%            &uUUUUYYYYYYYYYYY",
"YYYYYYYYYYYYUUUG,  @:qalvvji9-O  5KUUUYYYYYYYYYY",
"YYYYYYYYYYYYUUUy  8nUUUUUUUUUUz3  aUUUYYYYYYYYYY",
"YYYYYYYYYYYYUUU2 5UUUUUUUUUUUUUU: 7UUUYYYYYYYYYY",
"YYYYYUUUUUUUUUUf,vUUUUUSBBGUUUUUg,lUUUUUUUUUYYYY",
"YYYYUUUUUUUUUUUUUUUUUUUUUUUUUUUUUUUUUUUUUUUUUYYY",
"YYYYUUUUUUUUUUUUUUUUUUUUUUUUUUUUUUUUUUUUUUUUUYYY",
"YYYYUUUVrrrrrrrVUUUUv:-:----vUUUUn--:--:-vUUUYYY",
"YYYYUUUkeeeeeeekUUUUj       jUUUUj       lUUUYYY",
"YYYYUUUkeeeeeeekUUUUj       jUUUUj       jUUUYYY",
"YYYYUUUkeeeeeeekUUUUj       jUUUUj       jUUUYYY",
"YYYYUUUkeeeeeeekUUUUj       jUUUUj       jUUUYYY",
"YYYYUUUkeeeeeeekUUUUl       lUUUUj       jUUUYYY",
"YYYYUUUCtttttttCUUUUBwwqwqwqBUUUUBwqwwwqqBUUUYYY",
"YYYYUUUUUUUUUUUUUUUUUUUUUUUUUUUUUUUUUUUUUUUUUYYY",
"YYYYUUUUUUUUUUUUUUUUUUUUUUUUUUUUUUUUUUUUUUUUUYYY",
"YYYYYUUUUUUUUUUUUUUUUUUUUUUUUUUUUUUUUUUUUUUUYYYY",
"YYYYYYYYYYYYYYYYYYYYYYYYYYYYYYYYYYYYYYYYYYYYYYYY",
"YYYYYYYYYYYYYYYYYYYYYYYYYYYYYYYYYYYYYYYYYYYYYYYY",
"YYYYYYYYYYYYYYYYYYYYYYYYYYYYYYYYYYYYYYYYYYYYYYYY",
"YYYYYYYYYYYYYYYYYYYYYYYYYYYYYYYYYYYYYYYYYYYYYYYY",
"YYYYYYYYYYYYYYYYYYYYYYYYYYYYYYYYYYYYYYYYYYYYYYYY",
"YYYYYYYYYYYYYYYYYYYYYYYYYYYYYYYYYYYYYYYYYYYYYYYY",
"YYYYYYYYYYYYYYYYYYYYYYYYYYYYYYYYYYYYYYYYYYYYYYYY"
};
