/* XPM */
static char *broken-0[] = {
/* columns rows colors chars-per-pixel */
"32 16 169 2",
"   c black",
".  c #070708",
"X  c #323135",
"o  c #36353A",
"O  c #37373A",
"+  c #3C3B3F",
"@  c #3E3D42",
"#  c #2C4058",
"$  c #3D4751",
"%  c #344C61",
"&  c #403F43",
"*  c #404655",
"=  c #424852",
"-  c #494D5A",
";  c #48535C",
":  c #4C5360",
">  c #555A61",
",  c #545B64",
"<  c #575B66",
"1  c #565D6B",
"2  c #595E62",
"3  c #595E64",
"4  c #5A5E64",
"5  c #5A5F6A",
"6  c #595F6D",
"7  c #5D626F",
"8  c #5C6873",
"9  c #62666C",
"0  c #64686E",
"q  c #636674",
"w  c #636876",
"e  c #656B74",
"r  c #616A79",
"t  c #626A78",
"y  c #646C79",
"u  c #6A6E76",
"i  c #6F6E78",
"p  c #65707C",
"a  c #66717C",
"s  c #6D717F",
"d  c #6E717F",
"f  c #706E74",
"g  c #706F7C",
"h  c #72757D",
"j  c #6D7083",
"k  c #707283",
"l  c #727583",
"z  c #717488",
"x  c #757884",
"c  c #777A8D",
"v  c #7B7881",
"b  c #787B84",
"n  c #7C7B86",
"m  c #7A7F8E",
"M  c #7D8189",
"N  c #963E30",
"B  c #983F31",
"V  c #A74535",
"C  c #A74635",
"Z  c #A84535",
"A  c #A94636",
"S  c #AF4938",
"D  c #B84D3B",
"F  c #BB4E3C",
"G  c #D05642",
"H  c #E45F49",
"J  c #808485",
"K  c #82858C",
"L  c #88878E",
"P  c #818397",
"I  c #838490",
"U  c #868593",
"Y  c #868998",
"T  c #86889D",
"R  c #8C8E96",
"E  c #8E8D9C",
"W  c #8F9395",
"Q  c #94929B",
"!  c #96959F",
"~  c #909A9D",
"^  c #8A8BA0",
"/  c #8F91A5",
"(  c #9192A7",
")  c #9597AA",
"_  c #9796AC",
"`  c #9995A2",
"'  c #9898A4",
"]  c #9999A4",
"[  c #9C9CB3",
"{  c #A29EAB",
"}  c #A09FAC",
"|  c #A4A6B9",
" . c #A7A9BD",
".. c #A9AAB5",
"X. c #ACA8B4",
"o. c #AEAFBE",
"O. c #AFB2BF",
"+. c #B0ACB7",
"@. c #B0AEB9",
"#. c #A8AAC0",
"$. c #ADABC2",
"%. c #ACAEC5",
"&. c #B6B7CB",
"*. c #B8B7C4",
"=. c #BFBEC6",
"-. c #BEBFD2",
";. c #BCC2D1",
":. c #BFC0D6",
">. c #C4C7CD",
",. c #C3C3DB",
"<. c #C7CAD1",
"1. c #CDCED6",
"2. c #CACADF",
"3. c #D5D4DE",
"4. c #D7D8D7",
"5. c #D8D8D6",
"6. c #DBDBDC",
"7. c #CACCE1",
"8. c #C7DAE4",
"9. c #D2D6EB",
"0. c #D4D5EA",
"q. c #D1D8EA",
"w. c #D8DCEF",
"e. c #DADEF0",
"r. c #DBE0F5",
"t. c #E0DEE8",
"y. c #E3E0EB",
"u. c #E4E6EE",
"i. c #E7E5EF",
"p. c #ECEEEF",
"a. c #E2E3F5",
"s. c #E1E4F3",
"d. c #E3E4F3",
"f. c #E3E5F2",
"g. c #E1E4F5",
"h. c #E7E5F2",
"j. c #E4E5F6",
"k. c #E5E7F8",
"l. c #E5E9F7",
"z. c #E9E7F3",
"x. c #E9E9F7",
"c. c #EBEDF5",
"v. c #EAECF7",
"b. c #ECEBF5",
"n. c #EDECF4",
"m. c #EEEFF6",
"M. c #E9ECFB",
"N. c #F0F1F6",
"B. c #F1F1F6",
"V. c #F1F2F6",
"C. c #F3F2F6",
"Z. c #F3F4F7",
"A. c #F6F6F6",
"S. c #F2F1F9",
"D. c #F2F3FA",
"F. c #F3F4F8",
"G. c #F4F6F9",
"H. c #F6F7F8",
"J. c #F7F8F9",
"K. c #F7F9F9",
"L. c #F8F6F9",
"P. c #F8FAF7",
"I. c #F9FBF7",
"U. c #FAFAF5",
"Y. c #FAFAF9",
"T. c #FAFBFB",
"R. c #FBFBFB",
"E. c #FEFEF9",
"W. c None",
/* pixels */
"W.W.W.W.W.W.W.W.W.W.W.W.W.W.W.W.W.W.W.W.W.W.W.W.W.W.W.W.W.W.W.W.",
"W.W.W.W.W.W.W.W.W.W.W.Y.W , z | O./ s p 8.W.W.W.W.W.W.W.W.W.W.W.",
"W.W.W.W.W.W.W.W.W.~ = < j %.a.S.i.M.,.T y $ ; W.W.W.W.W.W.W.W.W.",
"W.W.W.W.W.W.W.W.a ; k [ 7.s.V.>.e =.l.0.$.P t t W.W.W.W.W.W.W.W.",
"W.W.W.W.W.W.W.J 6 ^ #.9.a.c.<.% # M V.f.w.-.) c 1 W.W.W.W.W.W.W.",
"W.W.W.W.W.W.  5 ( &.q.d.m.V.p.* - i Y.m.v.e.7._ 8   W.W.W.W.W.W.",
"W.W.W.W.W.    7 m ;.d.S.F.J.P.Y.J.T.A.Z.m.x.e.Y e     W.W.W.W.W.",
"W.W.W.W.W.    n d  .j.G.P.E.E.6.4.4.T.U.N.k.-.z q     W.W.W.W.W.",
"W.W.W.W.W.    & I x U o.1.t.i.z.b.z.t.3.*.E g x @     W.W.W.W.W.",
"W.W.W.W.W.      O ! ] R h 0 3 > 2 3 0 u K ] ` @       W.W.W.W.W.",
"W.W.W.W.W.        . X f L } ..@.+.X.} Q v O .         W.W.W.W.W.",
"W.W.W.W.W.W.                                        W.W.W.W.W.W.",
"W.W.W.                                                    W.W.W.",
"W.W.W.  F H F         S G C         A G S         F H F   W.W.W.",
"W.W.W.  A F B   W.W.  A D N         C D N   W.W.  A F B   W.W.W.",
"W.W.W.          W.W.          W.W.          W.W.          W.W.W."
};
