/* XPM */
static char *mbdesktop[] = {
/* columns rows colors chars-per-pixel */
"31 32 169 2",
"   c black",
".  c #161616",
"X  c #1B1B15",
"o  c #2B3444",
"O  c #364155",
"+  c #4F4115",
"@  c #5B4F2C",
"#  c #635731",
"$  c #655930",
"%  c #6C5F34",
"&  c gray25",
"*  c #4D4E41",
"=  c #4B4B49",
"-  c #5D5D5D",
";  c #44526A",
":  c #4B5564",
">  c #61624D",
",  c #616252",
"<  c #696A58",
"1  c #6E705B",
"2  c #6F725C",
"3  c #70725A",
"4  c #70725D",
"5  c #71725E",
"6  c #72725E",
"7  c #7A7D5F",
"8  c #787963",
"9  c #7A7C65",
"0  c #767676",
"q  c #556784",
"w  c #737D8C",
"e  c #7E806B",
"r  c #7F816A",
"t  c #76849C",
"y  c #808266",
"u  c #828565",
"i  c #828665",
"p  c #838666",
"a  c #868969",
"s  c #878A69",
"d  c #878A6A",
"f  c #878B6B",
"g  c #878A6C",
"h  c #888C6C",
"j  c #898C6D",
"k  c #8A8D6D",
"l  c #8B8D72",
"z  c #8F9075",
"x  c #949773",
"c  c #959874",
"v  c #959875",
"b  c #969975",
"n  c #969976",
"m  c #979A76",
"M  c #979A77",
"N  c #989B77",
"B  c #989B78",
"V  c #999C78",
"C  c #999C79",
"Z  c #9A9C79",
"A  c #9A9D79",
"S  c #9A9D7A",
"D  c #9B9E7A",
"F  c #9B9E7B",
"G  c #9C9E7B",
"H  c #9C9F7C",
"J  c #9D9F7D",
"K  c #9DA07D",
"L  c #9EA07E",
"P  c #9EA17E",
"I  c #9EA17F",
"U  c #9FA17F",
"Y  c #9FA27F",
"T  c #D7AE74",
"R  c #F4B244",
"E  c #F7B544",
"W  c #F7B545",
"Q  c #F2B64D",
"!  c #F6D236",
"~  c #FBE73B",
"^  c #FCE93B",
"/  c #FCEB3D",
"(  c gray52",
")  c #848C98",
"_  c #9298A2",
"`  c #909CAF",
"'  c #A0A280",
"]  c #A0A380",
"[  c #A0A381",
"{  c #A1A381",
"}  c #A1A482",
"|  c #A3A583",
" . c #A3A684",
".. c #A4A785",
"X. c #A5A786",
"o. c #A6A887",
"O. c #A6A987",
"+. c #A7AA88",
"@. c #A8AA89",
"#. c #A8AB8A",
"$. c #A9AB8A",
"%. c #A9AC8A",
"&. c #AAAC8B",
"*. c #AAAD8B",
"=. c #ABAD8C",
"-. c #ACAE8D",
";. c #ACAF8E",
":. c #ADAF8E",
">. c #AEB08F",
",. c #AFB191",
"<. c #B0B292",
"1. c #B1B493",
"2. c #B2B494",
"3. c #B4B696",
"4. c #B4B797",
"5. c #B7B999",
"6. c #B8BA9B",
"7. c #B9BB9C",
"8. c #BABC9D",
"9. c #BBBD9D",
"0. c #BBBD9E",
"q. c #BCBE9F",
"w. c #A0A0A0",
"e. c gray66",
"r. c gray68",
"t. c #A5AFBE",
"y. c #BBBCAC",
"u. c #BBBBBB",
"i. c #BCBCBC",
"p. c gray74",
"a. c #B6BECA",
"s. c #C8C9BC",
"d. c #CCCDB9",
"f. c #CDCDB9",
"g. c #CDCEB9",
"h. c #CDCFB9",
"j. c #CDCFBA",
"k. c #CDD0BB",
"l. c #CED0BC",
"z. c #CFD0BC",
"x. c #D0D1BD",
"c. c #D1D3BF",
"v. c #C1C1C1",
"b. c gray76",
"n. c #C3C3C3",
"m. c #D2D3C0",
"M. c #D3D4C0",
"N. c #D6D7C6",
"B. c gray88",
"V. c #E2E2E2",
"C. c gray89",
"Z. c #E4E4E4",
"A. c gray90",
"S. c #E6E6E6",
"D. c #E7E7E7",
"F. c gray91",
"G. c #E9E9E9",
"H. c #EAEAEA",
"J. c gray92",
"K. c #ECECEC",
"L. c gray93",
"P. c #EEEEEE",
"I. c #EFEFEF",
"U. c gray94",
"Y. c #F1F1F1",
"T. c #FBFBFB",
"R. c #FDFDFD",
"E. c #FEFEFE",
"W. c None",
/* pixels */
"W.W.W.W.W.W.W.W.W.W.W.W.W.W.W.W.W.W.W.W.W.W.W.W.W.W.W.W.W.W.W.",
"W.W.W.W.W.W.W.W.W.W.W.W.W.W.W.W.W.W.W.W.W.W.W.W.W.W.W.W.W.W.W.",
"W.W.W.W.W.W.W.W.W.W.W.W.W.W.W.W.W.W.W.W.W.W.W.W.W.W.W.W.W.W.W.",
"W.W.W.W.W.W.W.W.W.W.W.W.W.W.W.W.W.W.W.W.W.W.W.W.W.W.W.W.W.W.W.",
"W.W.W.W.W.W.W.W.W.W.W.W.W.W.W.W.W.W.W.W.W.W.W.W.W.W.W.W.W.W.W.",
"W.W.            W.W.W.W.W.W.W.W.W.W.W.W.W.W.W.            W.W.",
"W.                                                          W.",
"    a.t.t.w                                   a.` ` w         ",
"    ` q ; * s.M.M.M.M.M.c.c.x.x.z.j.j.j.j.j.j.6 t.q ;         ",
"    ` ; , q.q.e               e 4.1.,.>.=.#.O. .2 ` ;         ",
"    w , q.q.q.  E.E.E.E.E.V.v.  8 ,.>.=.$.$. .X.[ 1 `         ",
"      y.q.q.q.  E.Y.Y.Y.Y.v.T.e.  9 =.#.$.X. .] Y u           ",
"      M.q.q.q.  E.Y.Y.Y.Y.r.0 - &   =.#.    3 ] L u           ",
"W.    M.q.q.q.  E.Y.Y.Y.Y.V.( = .   *.  ~ Q   L H u         W.",
"W.    M.q.q.q.  E.Y.K.Y.K.K.Y.K.i.    / E #   L F u         W.",
"W.    M.q.q.q.  E.K.K.K.K.J.J.J.i.  ~ W %   r H Z u         W.",
"W.    c.q.q.q.  E.J.Z.J.J.Z.J.D.  ! R @   f L Z B i         W.",
"W.    x.q.q.q.  T.J.J.D.Z.J.Z.J.  T $   L K Z Z N u         W.",
"W.    x.q.q.q.  E.Z.Z.J.Z.J.Z.  +     ] K K Z Z v u         W.",
"W.    j.q.q.q.  E.J.D.Z.Z.Z.Z.      ] Y K K B c v u         W.",
"W.    j.q.q.6.  T.Z.Z.Z.Z.V.C.V.i.  Y L G Z c c x u         W.",
"W.    N.q.q.6.  v.i.i.i.i.i.i.u.w.X L L Z N c x x u         W.",
"    t 6 q.6.6.<                   > L F Z N c x x 7 _         ",
"    q t 4 6.6.4.4.,.>.>.#.O.X.X.] [ F Z N c c c x a.;         ",
"    q q t l x j k k f f f a u u u u u u u u u u t.q ;         ",
"    O O O :                                   ) O O o         ",
"                                                              ",
"                                                              ",
"W.                                                          W.",
"W.W.            W.W.W.W.W.W.W.W.W.W.W.W.W.W.W.            W.W.",
"W.W.W.W.W.W.W.W.W.W.W.W.W.W.W.W.W.W.W.W.W.W.W.W.W.W.W.W.W.W.W.",
"W.W.W.W.W.W.W.W.W.W.W.W.W.W.W.W.W.W.W.W.W.W.W.W.W.W.W.W.W.W.W."
};
