/* XPM */
static char *no-link-0[] = {
/* columns rows colors chars-per-pixel */
"32 16 173 2",
"   c black",
".  c #070708",
"X  c #323135",
"o  c #36353A",
"O  c #37373A",
"+  c #3C3B3F",
"@  c #3E3D42",
"#  c #2C4058",
"$  c #3D4751",
"%  c #344C61",
"&  c #403F43",
"*  c #404655",
"=  c #424852",
"-  c #494D5A",
";  c #48535C",
":  c #4C5360",
">  c #555A61",
",  c #545B64",
"<  c #575B66",
"1  c #565D6B",
"2  c #595E62",
"3  c #595E64",
"4  c #5A5E64",
"5  c #5A5F6A",
"6  c #595F6D",
"7  c #5D626F",
"8  c #5C6873",
"9  c #62666C",
"0  c #64686E",
"q  c #636674",
"w  c #636876",
"e  c #656B74",
"r  c #616A79",
"t  c #626A78",
"y  c #646C79",
"u  c #6A6E76",
"i  c #6F6E78",
"p  c #65707C",
"a  c #66717C",
"s  c #6D717F",
"d  c #6E717F",
"f  c #706E74",
"g  c #706F7C",
"h  c #72757D",
"j  c #6D7083",
"k  c #707283",
"l  c #727583",
"z  c #717488",
"x  c #757884",
"c  c #777A8D",
"v  c #7B7881",
"b  c #787B84",
"n  c #7C7B86",
"m  c #7A7F8E",
"M  c #7D8189",
"N  c #808485",
"B  c #82858C",
"V  c #88878E",
"C  c #818397",
"Z  c #838490",
"A  c #868593",
"S  c #868998",
"D  c #86889D",
"F  c #8C8E96",
"G  c #8E8D9C",
"H  c #8F9395",
"J  c #94929B",
"K  c #96959F",
"L  c #909A9D",
"P  c #8A8BA0",
"I  c #8F91A5",
"U  c #9192A7",
"Y  c #9597AA",
"T  c #9796AC",
"R  c #9995A2",
"E  c #9898A4",
"W  c #9999A4",
"Q  c #9C9CB3",
"!  c #A29EAB",
"~  c #A09FAC",
"^  c #A4A6B9",
"/  c #A7A9BD",
"(  c #A9AAB5",
")  c #ACA8B4",
"_  c #AEAFBE",
"`  c #AFB2BF",
"'  c #B0ACB7",
"]  c #B0AEB9",
"[  c #B6B6B6",
"{  c gray74",
"}  c gray",
"|  c gray75",
" . c #A8AAC0",
".. c #ADABC2",
"X. c #ACAEC5",
"o. c #B6B7CB",
"O. c #B8B7C4",
"+. c #BFBEC6",
"@. c #BEBFD2",
"#. c #BCC2D1",
"$. c #BFC0D6",
"%. c #C0C0C0",
"&. c #C1C1C1",
"*. c #C4C7CD",
"=. c #C8C8C8",
"-. c gray79",
";. c #CACACA",
":. c #CBCBCB",
">. c #C3C3DB",
",. c #C7CAD1",
"<. c #CDCED6",
"1. c #CACADF",
"2. c gray83",
"3. c gray84",
"4. c #D7D7D7",
"5. c #D5D4DE",
"6. c #D7D8D7",
"7. c #D8D8D6",
"8. c #DBDBDC",
"9. c #CACCE1",
"0. c #C7DAE4",
"q. c #D2D6EB",
"w. c #D4D5EA",
"e. c #D1D8EA",
"r. c #D8DCEF",
"t. c #DADEF0",
"y. c #DBE0F5",
"u. c #E0DEE8",
"i. c #E3E0EB",
"p. c #E4E6EE",
"a. c #E7E5EF",
"s. c #E9E9E9",
"d. c #ECEEEF",
"f. c #E2E3F5",
"g. c #E1E4F3",
"h. c #E3E4F3",
"j. c #E3E5F2",
"k. c #E1E4F5",
"l. c #E7E5F2",
"z. c #E4E5F6",
"x. c #E5E7F8",
"c. c #E5E9F7",
"v. c #E9E7F3",
"b. c #E9E9F7",
"n. c #EBEDF5",
"m. c #EAECF7",
"M. c #ECEBF5",
"N. c #EDECF4",
"B. c #EEEFF6",
"V. c #E9ECFB",
"C. c #F0F1F6",
"Z. c #F1F1F6",
"A. c #F1F2F6",
"S. c #F3F2F6",
"D. c #F3F4F7",
"F. c #F6F6F6",
"G. c #F2F1F9",
"H. c #F2F3FA",
"J. c #F3F4F8",
"K. c #F4F6F9",
"L. c #F6F7F8",
"P. c #F7F8F9",
"I. c #F7F9F9",
"U. c #F8F6F9",
"Y. c #F8FAF7",
"T. c #F9FBF7",
"R. c #FAFAF5",
"E. c #FAFAF9",
"W. c #FAFBFB",
"Q. c #FBFBFB",
"!. c #FEFEF9",
"~. c gray100",
"^. c None",
/* pixels */
"^.^.^.^.^.^.^.^.^.^.^.^.^.^.^.^.^.^.^.^.^.^.^.^.^.^.^.^.^.^.^.^.",
"^.^.^.^.^.^.^.^.^.^.^.E.H , z ^ ` I s p 0.^.^.^.^.^.^.^.^.^.^.^.",
"^.^.^.^.^.^.^.^.^.L = < j X.f.G.a.V.>.D y $ ; ^.^.^.^.^.^.^.^.^.",
"^.^.^.^.^.^.^.^.a ; k Q 9.g.A.*.e +.c.w...C t t ^.^.^.^.^.^.^.^.",
"^.^.^.^.^.^.^.N 6 P  .q.f.n.,.% # M A.j.r.@.Y c 1 ^.^.^.^.^.^.^.",
"^.^.^.^.^.^.  5 U o.e.h.B.A.d.* - i E.B.m.t.9.T 8   ^.^.^.^.^.^.",
"^.^.^.^.^.    7 m #.h.G.J.P.Y.E.P.W.F.D.B.b.t.S e     ^.^.^.^.^.",
"^.^.^.^.^.    n d / z.K.Y.!.!.8.6.6.W.R.C.x.@.z q     ^.^.^.^.^.",
"^.^.^.^.^.    & Z x A _ <.u.a.v.M.v.u.5.O.G g b @     ^.^.^.^.^.",
"^.^.^.^.^.      O K W F h 0 3 > 4 3 9 u B W R +       ^.^.^.^.^.",
"^.^.^.^.^.        . X f V ~ ( ] ' ) ! J v O .         ^.^.^.^.^.",
"^.^.^.^.^.^.                                        ^.^.^.^.^.^.",
"^.^.^.                                                    ^.^.^.",
"^.^.^.  3.~.;.        ;.s.[         &.s.|         4.~.:.  ^.^.^.",
"^.^.^.  ;.3.|   ^.^.  ;.3.|         ;.2.|   ^.^.  :.4.&.  ^.^.^.",
"^.^.^.          ^.^.          ^.^.          ^.^.          ^.^.^."
};
