/* XPM */
static char *signal-1-40[] = {
/* columns rows colors chars-per-pixel */
"32 16 175 2",
"   c black",
".  c #070708",
"X  c #323135",
"o  c #36353A",
"O  c #37373A",
"+  c #3C3B3F",
"@  c #3E3D42",
"#  c #2C4058",
"$  c #3D4751",
"%  c #344C61",
"&  c #403F43",
"*  c #404655",
"=  c #424852",
"-  c #494D5A",
";  c #48535C",
":  c #4C5360",
">  c #555A61",
",  c #545B64",
"<  c #575B66",
"1  c #565D6B",
"2  c #595E62",
"3  c #595E64",
"4  c #5A5E64",
"5  c #5A5F6A",
"6  c #595F6D",
"7  c #5D626F",
"8  c #5C6873",
"9  c #62666C",
"0  c #64686E",
"q  c #636674",
"w  c #636876",
"e  c #656B74",
"r  c #616A79",
"t  c #626A78",
"y  c #646C79",
"u  c #6A6E76",
"i  c #6F6E78",
"p  c #65707C",
"a  c #66717C",
"s  c #6D717F",
"d  c #6E717F",
"f  c #706E74",
"g  c #706F7C",
"h  c #72757D",
"j  c #6D7083",
"k  c #707283",
"l  c #727583",
"z  c #717488",
"x  c #757884",
"c  c #777A8D",
"v  c #7B7881",
"b  c #787B84",
"n  c #7C7B86",
"m  c #7A7F8E",
"M  c #7D8189",
"N  c #A98B20",
"B  c #BC9A23",
"V  c #D0AA27",
"C  c #FED02F",
"Z  c #808485",
"A  c #82858C",
"S  c #88878E",
"D  c #818397",
"F  c #838490",
"G  c #868593",
"H  c #868998",
"J  c #86889D",
"K  c #8C8E96",
"L  c #8E8D9C",
"P  c #8F9395",
"I  c #94929B",
"U  c #96959F",
"Y  c #909A9D",
"T  c #8A8BA0",
"R  c #8F91A5",
"E  c #9192A7",
"W  c #9597AA",
"Q  c #9796AC",
"!  c #9995A2",
"~  c #9898A4",
"^  c #9999A4",
"/  c #9C9CB3",
"(  c #A29EAB",
")  c #A09FAC",
"_  c #A4A6B9",
"`  c #A7A9BD",
"'  c #A9AAB5",
"]  c #ACA8B4",
"[  c #AEAFBE",
"{  c #AFB2BF",
"}  c #B0ACB7",
"|  c #B0AEB9",
" . c #B6B6B6",
".. c gray74",
"X. c gray",
"o. c #A8AAC0",
"O. c #ADABC2",
"+. c #ACAEC5",
"@. c #B6B7CB",
"#. c #B8B7C4",
"$. c #BFBEC6",
"%. c #BEBFD2",
"&. c #BCC2D1",
"*. c #BFC0D6",
"=. c #C0C0C0",
"-. c #C1C1C1",
";. c #C4C7CD",
":. c #C8C8C8",
">. c gray79",
",. c #CACACA",
"<. c #CBCBCB",
"1. c #C3C3DB",
"2. c #C7CAD1",
"3. c #CDCED6",
"4. c #CACADF",
"5. c gray83",
"6. c #D7D7D7",
"7. c #D5D4DE",
"8. c #D7D8D7",
"9. c #D8D8D6",
"0. c #DBDBDC",
"q. c #CACCE1",
"w. c #C7DAE4",
"e. c #D2D6EB",
"r. c #D4D5EA",
"t. c #D1D8EA",
"y. c #D8DCEF",
"u. c #DADEF0",
"i. c #DBE0F5",
"p. c #E0DEE8",
"a. c #E3E0EB",
"s. c #E4E6EE",
"d. c #E7E5EF",
"f. c #E9E9E9",
"g. c #ECEEEF",
"h. c #E2E3F5",
"j. c #E1E4F3",
"k. c #E3E4F3",
"l. c #E3E5F2",
"z. c #E1E4F5",
"x. c #E7E5F2",
"c. c #E4E5F6",
"v. c #E5E7F8",
"b. c #E5E9F7",
"n. c #E9E7F3",
"m. c #E9E9F7",
"M. c #EBEDF5",
"N. c #EAECF7",
"B. c #ECEBF5",
"V. c #EDECF4",
"C. c #EEEFF6",
"Z. c #E9ECFB",
"A. c #F0F1F6",
"S. c #F1F1F6",
"D. c #F1F2F6",
"F. c #F3F2F6",
"G. c #F3F4F7",
"H. c #F6F6F6",
"J. c #F2F1F9",
"K. c #F2F3FA",
"L. c #F3F4F8",
"P. c #F4F6F9",
"I. c #F6F7F8",
"U. c #F7F8F9",
"Y. c #F7F9F9",
"T. c #F8F6F9",
"R. c #F8FAF7",
"E. c #F9FBF7",
"W. c #FAFAF5",
"Q. c #FAFAF9",
"!. c #FAFBFB",
"~. c #FBFBFB",
"^. c #FEFEF9",
"/. c gray100",
"(. c None",
/* pixels */
"(.(.(.(.(.(.(.(.(.(.(.(.(.(.(.(.(.(.(.(.(.(.(.(.(.(.(.(.(.(.(.(.",
"(.(.(.(.(.(.(.(.(.(.(.Q.P , z _ { R s p w.(.(.(.(.(.(.(.(.(.(.(.",
"(.(.(.(.(.(.(.(.(.Y = < j +.h.J.d.Z.1.J y $ ; (.(.(.(.(.(.(.(.(.",
"(.(.(.(.(.(.(.(.a ; k / q.j.D.;.e $.b.r.O.D t t (.(.(.(.(.(.(.(.",
"(.(.(.(.(.(.(.Z 6 T o.e.h.M.2.% # M D.l.y.%.W c 1 (.(.(.(.(.(.(.",
"(.(.(.(.(.(.  5 E @.t.k.C.D.g.* - i Q.C.N.u.q.Q 8   (.(.(.(.(.(.",
"(.(.(.(.(.    7 m &.k.J.L.U.R.Q.U.!.H.G.C.m.u.H e     (.(.(.(.(.",
"(.(.(.(.(.    n d ` c.P.R.^.^.0.8.8.!.W.A.v.%.z q     (.(.(.(.(.",
"(.(.(.(.(.    & F x G [ 3.p.d.n.B.n.p.7.#.L h x @     (.(.(.(.(.",
"(.(.(.(.(.      O U ^ K h 0 3 > 4 3 9 u A ! ! @       (.(.(.(.(.",
"(.(.(.(.(.        . X f S ) ' | } ] ( I v O .         (.(.(.(.(.",
"(.(.(.(.(.(.                                        (.(.(.(.(.(.",
"(.(.(.                                                    (.(.(.",
"(.(.(.  V C V         ,.f. .        -.f.X.        6./.<.  (.(.(.",
"(.(.(.  B V N   (.(.  ,.5...        ,.5...  (.(.  <.6.-.  (.(.(.",
"(.(.(.          (.(.          (.(.          (.(.          (.(.(."
};
