/* XPM */
static char *signal-81-100[] = {
/* columns rows colors chars-per-pixel */
"32 16 168 2",
"   c black",
".  c #070708",
"X  c #323135",
"o  c #36353A",
"O  c #37373A",
"+  c #3C3B3F",
"@  c #3E3D42",
"#  c #2C4058",
"$  c #3D4751",
"%  c #344C61",
"&  c #403F43",
"*  c #404655",
"=  c #424852",
"-  c #494D5A",
";  c #48535C",
":  c #4C5360",
">  c #555A61",
",  c #545B64",
"<  c #575B66",
"1  c #565D6B",
"2  c #595E62",
"3  c #595E64",
"4  c #5A5E64",
"5  c #5A5F6A",
"6  c #595F6D",
"7  c #5D626F",
"8  c #5C6873",
"9  c #62666C",
"0  c #64686E",
"q  c #636674",
"w  c #636876",
"e  c #656B74",
"r  c #616A79",
"t  c #626A78",
"y  c #646C79",
"u  c #6A6E76",
"i  c #6F6E78",
"p  c #65707C",
"a  c #66717C",
"s  c #6D717F",
"d  c #6E717F",
"f  c #706E74",
"g  c #706F7C",
"h  c #72757D",
"j  c #6D7083",
"k  c #707283",
"l  c #727583",
"z  c #717488",
"x  c #757884",
"c  c #777A8D",
"v  c #7B7881",
"b  c #787B84",
"n  c #7C7B86",
"m  c #7A7F8E",
"M  c #2F972F",
"N  c #309930",
"B  c #34A834",
"V  c #34A934",
"C  c #35AA35",
"Z  c #37B037",
"A  c #3AB93A",
"S  c #3BBC3B",
"D  c #41D141",
"F  c #48E548",
"G  c #7D8189",
"H  c #808485",
"J  c #82858C",
"K  c #88878E",
"L  c #818397",
"P  c #838490",
"I  c #868593",
"U  c #868998",
"Y  c #86889D",
"T  c #8C8E96",
"R  c #8E8D9C",
"E  c #8F9395",
"W  c #94929B",
"Q  c #96959F",
"!  c #909A9D",
"~  c #8A8BA0",
"^  c #8F91A5",
"/  c #9192A7",
"(  c #9597AA",
")  c #9796AC",
"_  c #9995A2",
"`  c #9898A4",
"'  c #9999A4",
"]  c #9C9CB3",
"[  c #A29EAB",
"{  c #A09FAC",
"}  c #A4A6B9",
"|  c #A7A9BD",
" . c #A9AAB5",
".. c #ACA8B4",
"X. c #AEAFBE",
"o. c #AFB2BF",
"O. c #B0ACB7",
"+. c #B0AEB9",
"@. c #A8AAC0",
"#. c #ADABC2",
"$. c #ACAEC5",
"%. c #B6B7CB",
"&. c #B8B7C4",
"*. c #BFBEC6",
"=. c #BEBFD2",
"-. c #BCC2D1",
";. c #BFC0D6",
":. c #C4C7CD",
">. c #C3C3DB",
",. c #C7CAD1",
"<. c #CDCED6",
"1. c #CACADF",
"2. c #D5D4DE",
"3. c #D7D8D7",
"4. c #D8D8D6",
"5. c #DBDBDC",
"6. c #CACCE1",
"7. c #C7DAE4",
"8. c #D2D6EB",
"9. c #D4D5EA",
"0. c #D1D8EA",
"q. c #D8DCEF",
"w. c #DADEF0",
"e. c #DBE0F5",
"r. c #E0DEE8",
"t. c #E3E0EB",
"y. c #E4E6EE",
"u. c #E7E5EF",
"i. c #ECEEEF",
"p. c #E2E3F5",
"a. c #E1E4F3",
"s. c #E3E4F3",
"d. c #E3E5F2",
"f. c #E1E4F5",
"g. c #E7E5F2",
"h. c #E4E5F6",
"j. c #E5E7F8",
"k. c #E5E9F7",
"l. c #E9E7F3",
"z. c #E9E9F7",
"x. c #EBEDF5",
"c. c #EAECF7",
"v. c #ECEBF5",
"b. c #EDECF4",
"n. c #EEEFF6",
"m. c #E9ECFB",
"M. c #F0F1F6",
"N. c #F1F1F6",
"B. c #F1F2F6",
"V. c #F3F2F6",
"C. c #F3F4F7",
"Z. c #F6F6F6",
"A. c #F2F1F9",
"S. c #F2F3FA",
"D. c #F3F4F8",
"F. c #F4F6F9",
"G. c #F6F7F8",
"H. c #F7F8F9",
"J. c #F7F9F9",
"K. c #F8F6F9",
"L. c #F8FAF7",
"P. c #F9FBF7",
"I. c #FAFAF5",
"U. c #FAFAF9",
"Y. c #FAFBFB",
"T. c #FBFBFB",
"R. c #FEFEF9",
"E. c None",
/* pixels */
"E.E.E.E.E.E.E.E.E.E.E.E.E.E.E.E.E.E.E.E.E.E.E.E.E.E.E.E.E.E.E.E.",
"E.E.E.E.E.E.E.E.E.E.E.U.E , z } o.^ s p 7.E.E.E.E.E.E.E.E.E.E.E.",
"E.E.E.E.E.E.E.E.E.! = < j $.p.A.u.m.>.Y y $ ; E.E.E.E.E.E.E.E.E.",
"E.E.E.E.E.E.E.E.a ; k ] 6.a.B.:.e *.k.9.#.L r r E.E.E.E.E.E.E.E.",
"E.E.E.E.E.E.E.H 6 ~ @.8.p.x.,.% # G V.s.q.;.) c 1 E.E.E.E.E.E.E.",
"E.E.E.E.E.E.  5 / %.0.s.n.B.i.* - i F.n.n.q.6.) 8   E.E.E.E.E.E.",
"E.E.E.E.E.    7 m -.s.A.D.J.L.U.J.Y.Z.Z.n.z.w.U e     E.E.E.E.E.",
"E.E.E.E.E.    n d | h.F.L.R.R.5.3.3.Y.L.M.h.=.l q     E.E.E.E.E.",
"E.E.E.E.E.    & P x I X.<.r.u.l.v.l.r.2.&.R g x @     E.E.E.E.E.",
"E.E.E.E.E.      O Q ' T h 0 3 > 4 3 9 u J ' _ @       E.E.E.E.E.",
"E.E.E.E.E.        . X f K {  .+.O...[ W v O .         E.E.E.E.E.",
"E.E.E.E.E.E.                                        E.E.E.E.E.E.",
"E.E.E.                                                    E.E.E.",
"E.E.E.  S F S         C D C         C D Z         S F S   E.E.E.",
"E.E.E.  C S N   E.E.  C A N         B A M   E.E.  C S N   E.E.E.",
"E.E.E.          E.E.          E.E.          E.E.          E.E.E."
};
