/* XPM */
static char *signal-41-60[] = {
/* columns rows colors chars-per-pixel */
"32 16 177 2",
"   c black",
".  c #070708",
"X  c #323135",
"o  c #36353A",
"O  c #37373A",
"+  c #3C3B3F",
"@  c #3E3D42",
"#  c #2C4058",
"$  c #3D4751",
"%  c #344C61",
"&  c #403F43",
"*  c #404655",
"=  c #424852",
"-  c #494D5A",
";  c #48535C",
":  c #4C5360",
">  c #555A61",
",  c #545B64",
"<  c #575B66",
"1  c #565D6B",
"2  c #595E62",
"3  c #595E64",
"4  c #5A5E64",
"5  c #5A5F6A",
"6  c #595F6D",
"7  c #5D626F",
"8  c #5C6873",
"9  c #62666C",
"0  c #64686E",
"q  c #636674",
"w  c #636876",
"e  c #656B74",
"r  c #616A79",
"t  c #626A78",
"y  c #646C79",
"u  c #6A6E76",
"i  c #6F6E78",
"p  c #65707C",
"a  c #66717C",
"s  c #6D717F",
"d  c #6E717F",
"f  c #706E74",
"g  c #706F7C",
"h  c #72757D",
"j  c #6D7083",
"k  c #707283",
"l  c #727583",
"z  c #717488",
"x  c #757884",
"c  c #777A8D",
"v  c #7B7881",
"b  c #787B84",
"n  c #7C7B86",
"m  c #7A7F8E",
"M  c #1FA81F",
"N  c #20AB20",
"B  c #23BB23",
"V  c #22BC22",
"C  c #23BD23",
"Z  c #24C324",
"A  c #26CE26",
"S  c #27D127",
"D  c #2BE92B",
"F  c #30FF30",
"G  c #7D8189",
"H  c #808485",
"J  c #82858C",
"K  c #88878E",
"L  c #818397",
"P  c #838490",
"I  c #868593",
"U  c #868998",
"Y  c #86889D",
"T  c #8C8E96",
"R  c #8E8D9C",
"E  c #8F9395",
"W  c #94929B",
"Q  c #96959F",
"!  c #909A9D",
"~  c #8A8BA0",
"^  c #8F91A5",
"/  c #9192A7",
"(  c #9597AA",
")  c #9796AC",
"_  c #9995A2",
"`  c #9898A4",
"'  c #9999A4",
"]  c #9C9CB3",
"[  c #A29EAB",
"{  c #A09FAC",
"}  c #A4A6B9",
"|  c #A7A9BD",
" . c #A9AAB5",
".. c #ACA8B4",
"X. c #AEAFBE",
"o. c #AFB2BF",
"O. c #B0ACB7",
"+. c #B0AEB9",
"@. c gray",
"#. c #A8AAC0",
"$. c #ADABC2",
"%. c #ACAEC5",
"&. c #B6B7CB",
"*. c #B8B7C4",
"=. c #BFBEC6",
"-. c #BEBFD2",
";. c #BCC2D1",
":. c #BFC0D6",
">. c #C0C0C0",
",. c #C1C1C1",
"<. c #C4C7CD",
"1. c #C8C8C8",
"2. c #CBCBCB",
"3. c #C3C3DB",
"4. c #C7CAD1",
"5. c #CDCED6",
"6. c #CACADF",
"7. c gray83",
"8. c #D7D7D7",
"9. c #D5D4DE",
"0. c #D7D8D7",
"q. c #D8D8D6",
"w. c #DBDBDC",
"e. c #CACCE1",
"r. c #C7DAE4",
"t. c #D2D6EB",
"y. c #D4D5EA",
"u. c #D1D8EA",
"i. c #D8DCEF",
"p. c #DADEF0",
"a. c #DBE0F5",
"s. c #E0DEE8",
"d. c #E3E0EB",
"f. c #E4E6EE",
"g. c #E7E5EF",
"h. c #E9E9E9",
"j. c #ECEEEF",
"k. c #E2E3F5",
"l. c #E1E4F3",
"z. c #E3E4F3",
"x. c #E3E5F2",
"c. c #E1E4F5",
"v. c #E7E5F2",
"b. c #E4E5F6",
"n. c #E5E7F8",
"m. c #E5E9F7",
"M. c #E9E7F3",
"N. c #E9E9F7",
"B. c #EBEDF5",
"V. c #EAECF7",
"C. c #ECEBF5",
"Z. c #EDECF4",
"A. c #EEEFF6",
"S. c #E9ECFB",
"D. c #F0F1F6",
"F. c #F1F1F6",
"G. c #F1F2F6",
"H. c #F3F2F6",
"J. c #F3F4F7",
"K. c #F6F6F6",
"L. c #F2F1F9",
"P. c #F2F3FA",
"I. c #F3F4F8",
"U. c #F4F6F9",
"Y. c #F6F7F8",
"T. c #F7F8F9",
"R. c #F7F9F9",
"E. c #F8F6F9",
"W. c #F8FAF7",
"Q. c #F9FBF7",
"!. c #FAFAF5",
"~. c #FAFAF9",
"^. c #FAFBFB",
"/. c #FBFBFB",
"(. c #FEFEF9",
"). c gray100",
"_. c None",
/* pixels */
"_._._._._._._._._._._._._._._._._._._._._._._._._._._._._._._._.",
"_._._._._._._._._._._.~.E , z } o.^ s p r._._._._._._._._._._._.",
"_._._._._._._._._.! = < j %.k.L.g.S.3.Y y $ ; _._._._._._._._._.",
"_._._._._._._._.a ; k ] e.l.G.<.e =.m.y.$.L t t _._._._._._._._.",
"_._._._._._._.H 6 ~ #.t.k.B.4.% # G G.x.i.-.( c 1 _._._._._._._.",
"_._._._._._.  5 / &.u.z.A.G.j.* - i ~.A.V.p.e.) 8   _._._._._._.",
"_._._._._.    7 m ;.z.L.I.T.W.~.T.^.K.J.A.N.p.U e     _._._._._.",
"_._._._._.    n d | b.U.W.(.(.w.0.0.^.!.D.n.-.z q     _._._._._.",
"_._._._._.    & P x I X.5.s.g.M.C.M.s.9.*.R g b @     _._._._._.",
"_._._._._.      O Q ' T h 0 3 > 2 3 0 u J ' _ +       _._._._._.",
"_._._._._.        . X f K {  .+.O...{ W v O .         _._._._._.",
"_._._._._._.                                        _._._._._._.",
"_._._.                                                    _._._.",
"_._._.  S F S         Z D B         ,.h.@.        8.).2.  _._._.",
"_._._.  C S N   _._.  C A M         1.7.@.  _._.  2.8.,.  _._._.",
"_._._.          _._.          _._.          _._.          _._._."
};
